<svg width="16" height="19" viewBox="0 0 16 19" fill="none" xmlns="http://www.w3.org/2000/svg">
<path d="M6.125 0.17395C5.95924 0.17395 5.80027 0.252968 5.68306 0.39362C5.56585 0.534273 5.5 0.725038 5.5 0.92395C5.5 1.12286 5.56585 1.31363 5.68306 1.45428C5.80027 1.59493 5.95924 1.67395 6.125 1.67395H7.375V16.674H6.125C5.95924 16.674 5.80027 16.753 5.68306 16.8936C5.56585 17.0343 5.5 17.225 5.5 17.424C5.5 17.6229 5.56585 17.8136 5.68306 17.9543C5.80027 18.0949 5.95924 18.174 6.125 18.174H9.875C10.0408 18.174 10.1997 18.0949 10.3169 17.9543C10.4342 17.8136 10.5 17.6229 10.5 17.424C10.5 17.225 10.4342 17.0343 10.3169 16.8936C10.1997 16.753 10.0408 16.674 9.875 16.674H8.625V1.67395H9.875C10.0408 1.67395 10.1997 1.59493 10.3169 1.45428C10.4342 1.31363 10.5 1.12286 10.5 0.92395C10.5 0.725038 10.4342 0.534273 10.3169 0.39362C10.1997 0.252968 10.0408 0.17395 9.875 0.17395H6.125ZM3 3.17395H6.125V15.174H3C2.33696 15.174 1.70107 14.8579 1.23223 14.2953C0.763392 13.7327 0.5 12.9696 0.5 12.174V6.17395C0.5 5.3783 0.763392 4.61524 1.23223 4.05263C1.70107 3.49002 2.33696 3.17395 3 3.17395ZM13 15.174H9.875V3.17395H13C13.663 3.17395 14.2989 3.49002 14.7678 4.05263C15.2366 4.61524 15.5 5.3783 15.5 6.17395V12.174C15.5 12.9696 15.2366 13.7327 14.7678 14.2953C14.2989 14.8579 13.663 15.174 13 15.174Z" fill="#858585"/>
</svg>
