<svg width="22" height="21" viewBox="0 0 22 21" fill="none" xmlns="http://www.w3.org/2000/svg">
<path d="M0.5 3C0.5 2.20435 0.81607 1.44129 1.37868 0.87868C1.94129 0.31607 2.70435 0 3.5 0H5V5.25C5 5.84674 5.23705 6.41903 5.65901 6.84099C6.08097 7.26295 6.65326 7.5 7.25 7.5H13.25C13.8467 7.5 14.419 7.26295 14.841 6.84099C15.2629 6.41903 15.5 5.84674 15.5 5.25V0H16.0685C16.8641 0.000169912 17.627 0.316352 18.1895 0.879L20.621 3.3105C21.1836 3.87298 21.4998 4.63592 21.5 5.4315V18C21.5 18.7957 21.1839 19.5587 20.6213 20.1213C20.0587 20.6839 19.2957 21 18.5 21V12.75C18.5 12.1533 18.2629 11.581 17.841 11.159C17.419 10.7371 16.8467 10.5 16.25 10.5H5.75C5.15326 10.5 4.58097 10.7371 4.15901 11.159C3.73705 11.581 3.5 12.1533 3.5 12.75V21C2.70435 21 1.94129 20.6839 1.37868 20.1213C0.81607 19.5587 0.5 18.7957 0.5 18V3ZM14 0H6.5V5.25C6.5 5.44891 6.57902 5.63968 6.71967 5.78033C6.86032 5.92098 7.05109 6 7.25 6H13.25C13.4489 6 13.6397 5.92098 13.7803 5.78033C13.921 5.63968 14 5.44891 14 5.25V0ZM17 12.75V21H5V12.75C5 12.5511 5.07902 12.3603 5.21967 12.2197C5.36032 12.079 5.55109 12 5.75 12H16.25C16.4489 12 16.6397 12.079 16.7803 12.2197C16.921 12.3603 17 12.5511 17 12.75Z" fill="#272B2C"/>
</svg>
