<svg width="9" height="5" viewBox="0 0 9 5" fill="none" xmlns="http://www.w3.org/2000/svg">
<path fill-rule="evenodd" clip-rule="evenodd" d="M4.04265 0.389332C4.15986 0.272163 4.3188 0.206341 4.48453 0.206341C4.65025 0.206341 4.8092 0.272163 4.9264 0.389332L8.46203 3.92496C8.52172 3.98261 8.56933 4.05158 8.60209 4.12783C8.63485 4.20408 8.65209 4.28609 8.65281 4.36908C8.65353 4.45207 8.63772 4.53437 8.60629 4.61118C8.57486 4.68799 8.52846 4.75777 8.46977 4.81645C8.41109 4.87514 8.34131 4.92154 8.2645 4.95297C8.18769 4.9844 8.10539 5.00021 8.0224 4.99949C7.93941 4.99877 7.8574 4.98153 7.78115 4.94877C7.7049 4.91601 7.63593 4.8684 7.57828 4.80871L4.48453 1.71496L1.39078 4.80871C1.2729 4.92256 1.11502 4.98555 0.951151 4.98413C0.787278 4.9827 0.630521 4.91697 0.514641 4.80109C0.39876 4.68521 0.333029 4.52846 0.331605 4.36458C0.330181 4.20071 0.393178 4.04283 0.507027 3.92496L4.04265 0.389332Z" fill="#272B2C" fill-opacity="0.7"/>
</svg>
