<svg width="26" height="26" viewBox="0 0 26 26" fill="none" xmlns="http://www.w3.org/2000/svg">
<path d="M13 0.5C19.9037 0.5 25.5 6.09625 25.5 13C25.5 19.9037 19.9037 25.5 13 25.5C6.09625 25.5 0.5 19.9037 0.5 13C0.5 6.09625 6.09625 0.5 13 0.5ZM13 16.75C12.6685 16.75 12.3505 16.8817 12.1161 17.1161C11.8817 17.3505 11.75 17.6685 11.75 18C11.75 18.3315 11.8817 18.6495 12.1161 18.8839C12.3505 19.1183 12.6685 19.25 13 19.25C13.3315 19.25 13.6495 19.1183 13.8839 18.8839C14.1183 18.6495 14.25 18.3315 14.25 18C14.25 17.6685 14.1183 17.3505 13.8839 17.1161C13.6495 16.8817 13.3315 16.75 13 16.75ZM13 5.5C12.6938 5.50004 12.3983 5.61244 12.1695 5.81589C11.9407 6.01934 11.7946 6.29969 11.7587 6.60375L11.75 6.75V14.25C11.7504 14.5686 11.8723 14.875 12.0911 15.1067C12.3098 15.3384 12.6087 15.4778 12.9267 15.4965C13.2448 15.5151 13.558 15.4117 13.8023 15.2072C14.0466 15.0027 14.2036 14.7126 14.2413 14.3962L14.25 14.25V6.75C14.25 6.41848 14.1183 6.10054 13.8839 5.86612C13.6495 5.6317 13.3315 5.5 13 5.5Z" fill="#272B2C"/>
</svg>
